<svg width="77" height="97" viewBox="0 0 77 97" fill="none" xmlns="http://www.w3.org/2000/svg">
<path d="M51.1495 50.2042H37.6017H34.5043C34.0663 50.2042 33.3231 50.3715 33.054 50.7561C32.7719 51.1595 33.2998 51.2327 33.6008 51.2327H42.1064H55.6542H58.7516C59.1897 51.2327 59.9329 51.0653 60.2019 50.6807C60.4841 50.2773 59.956 50.2042 59.6553 50.2042H51.1495Z" fill="white"/>
<mask id="mask0_5_530" style="mask-type:luminance" maskUnits="userSpaceOnUse" x="-41" y="-51" width="159" height="199">
<path d="M-41 -50.8749H118V147.875H-41V-50.8749Z" fill="white"/>
</mask>
<g mask="url(#mask0_5_530)">
<path d="M23.3839 49.7422C25.1897 50.5375 27.1067 50.9865 29.0637 51.2022C29.6645 51.2684 30.5901 50.4253 29.6127 50.3175C24.8486 49.7924 20.2142 47.3534 17.8566 43.0502C17.8205 42.9844 17.7942 42.9128 17.7591 42.8459H27.5098H29.0793C29.3834 42.8459 29.8897 42.7522 30.0351 42.4366C30.1716 42.1405 29.9182 41.9612 29.6283 41.9612H18.573H17.0033C16.7504 41.9612 15.8345 42.1514 16.0023 42.5982C17.2121 45.82 20.3314 48.3979 23.3839 49.7422Z" fill="white"/>
</g>
<mask id="mask1_5_530" style="mask-type:luminance" maskUnits="userSpaceOnUse" x="-41" y="-51" width="159" height="199">
<path d="M-41 -50.875H118V147.875H-41V-50.875Z" fill="white"/>
</mask>
<g mask="url(#mask1_5_530)">
<path d="M18.9886 39.8725H33.0492H35.0419C35.5504 39.8725 36.1578 39.7541 36.583 39.4595C36.8947 39.2435 36.9119 38.9931 36.4582 38.9931H22.3976H20.7865C20.7418 37.8092 20.9561 36.5844 21.2246 35.4426C21.9583 32.3232 23.4428 29.4062 25.4022 26.8803C27.0092 24.8084 28.9563 23.0195 31.0603 21.4635C31.4703 21.1604 30.6985 21.1066 30.5485 21.1171C30.0357 21.1527 29.5027 21.3291 29.0891 21.6349C23.6953 25.6236 19.2734 31.5289 18.655 38.3839C18.615 38.8269 18.5817 39.2796 18.6069 39.7248C18.6142 39.852 18.9337 39.8725 18.9886 39.8725Z" fill="white"/>
</g>
<mask id="mask2_5_530" style="mask-type:luminance" maskUnits="userSpaceOnUse" x="-41" y="-51" width="159" height="199">
<path d="M-41 -50.875H118V147.875H-41V-50.875Z" fill="white"/>
</mask>
<g mask="url(#mask2_5_530)">
<path d="M40.9518 19.0807V17.3814C40.9518 17.0905 39.6111 17.3061 39.6111 17.7407V19.4399C39.6111 19.7308 40.9518 19.5153 40.9518 19.0807Z" fill="white"/>
</g>
<mask id="mask3_5_530" style="mask-type:luminance" maskUnits="userSpaceOnUse" x="-41" y="-51" width="159" height="199">
<path d="M-41 -50.875H118V147.875H-41V-50.875Z" fill="white"/>
</mask>
<g mask="url(#mask3_5_530)">
<path d="M34.8584 18.8752C38.7916 16.8606 42.7793 15.144 46.2241 12.3749C51.1378 8.42474 56.0515 4.47476 60.9652 0.524645C61.5133 0.0840092 59.2353 0.306314 58.7729 0.678051C54.2101 4.34595 49.6475 8.01399 45.0846 11.6819C41.4437 14.6088 38.1496 16.1041 33.4548 18.5087C32.0275 19.2398 34.2669 19.1781 34.8584 18.8752Z" fill="white"/>
</g>
<mask id="mask4_5_530" style="mask-type:luminance" maskUnits="userSpaceOnUse" x="-41" y="-51" width="159" height="199">
<path d="M-41 -50.875H118V147.875H-41V-50.875Z" fill="white"/>
</mask>
<g mask="url(#mask4_5_530)">
<path d="M13.9398 57.9779H0.0959473V59.7708H6.05285V77.2832H7.98293V59.7708H13.9398V57.9779Z" fill="white"/>
<mask id="mask5_5_530" style="mask-type:luminance" maskUnits="userSpaceOnUse" x="-41" y="-51" width="159" height="199">
<path d="M-41 -50.875H118V147.875H-41V-50.875Z" fill="white"/>
</mask>
<g mask="url(#mask5_5_530)">
<path d="M14.8235 69.644C15.1263 66.803 17.1676 64.9002 19.4839 64.9002C21.8835 64.9002 23.6758 66.8864 23.8414 69.644H14.8235ZM19.4839 63.2186C15.9266 63.2186 13.0029 66.1962 13.0029 70.3886C13.0029 74.6634 15.8439 77.5588 19.4839 77.5588C22.1593 77.5588 24.3377 75.8772 25.1653 73.6975H23.3724C22.5176 75.1324 21.2767 75.8772 19.5389 75.8772C17.0019 75.8772 15.1541 74.1122 14.8507 71.2712H25.5514C25.6343 70.94 25.6614 70.4988 25.6614 69.9752C25.6614 66.1695 23.0417 63.2186 19.4839 63.2186Z" fill="white"/>
</g>
<mask id="mask6_5_530" style="mask-type:luminance" maskUnits="userSpaceOnUse" x="-41" y="-51" width="159" height="199">
<path d="M-41 -50.8749H118V147.875H-41V-50.8749Z" fill="white"/>
</mask>
<g mask="url(#mask6_5_530)">
<path d="M34.4322 63.2186C32.391 63.2186 30.985 64.4311 30.3782 65.3692H30.2402L29.7712 63.4942H28.4475V77.2832H30.2402V69.285C30.2402 66.5274 31.8947 64.9002 34.2666 64.9002C36.5001 64.9002 38.1274 66.5274 38.1274 69.285V77.2832H39.9195V69.285C39.9195 65.5905 37.5482 63.2186 34.4322 63.2186Z" fill="white"/>
</g>
<mask id="mask7_5_530" style="mask-type:luminance" maskUnits="userSpaceOnUse" x="-41" y="-51" width="159" height="199">
<path d="M-41 -50.8751H118V147.875H-41V-50.8751Z" fill="white"/>
</mask>
<g mask="url(#mask7_5_530)">
<path d="M44.3866 58.806C43.6974 58.806 43.1462 59.3017 43.1462 60.0463C43.1462 60.7633 43.6974 61.2879 44.3866 61.2879C45.1034 61.2879 45.6281 60.7633 45.6281 60.0463C45.6281 59.3017 45.1034 58.806 44.3866 58.806Z" fill="white"/>
</g>
<mask id="mask8_5_530" style="mask-type:luminance" maskUnits="userSpaceOnUse" x="-41" y="-51" width="159" height="199">
<path d="M-41 -50.875H118V147.875H-41V-50.875Z" fill="white"/>
</mask>
<g mask="url(#mask8_5_530)">
<path d="M43.4772 78.0001C43.4772 79.8485 42.5948 80.7033 41.1876 80.7033C40.8297 80.7033 40.5529 80.6476 40.2495 80.5376V82.1649C40.5529 82.2749 40.884 82.3848 41.4632 82.3848C43.6417 82.3848 45.2689 80.7854 45.2689 78.0001V63.4943H43.4772V78.0001Z" fill="white"/>
</g>
<mask id="mask9_5_530" style="mask-type:luminance" maskUnits="userSpaceOnUse" x="-41" y="-51" width="159" height="199">
<path d="M-41 -50.875H118V147.875H-41V-50.875Z" fill="white"/>
</mask>
<g mask="url(#mask9_5_530)">
<path d="M49.8471 70.3887C49.8471 67.1065 52.0267 64.9003 54.5364 64.9003C57.0461 64.9003 59.2247 67.1065 59.2247 70.3887C59.2247 73.6709 57.0461 75.8771 54.5364 75.8771C52.0267 75.8771 49.8471 73.6709 49.8471 70.3887ZM61.0175 70.3887C61.0175 66.1963 58.0932 63.2185 54.5364 63.2185C50.9787 63.2185 48.0554 66.1963 48.0554 70.3887C48.0554 74.5801 50.9787 77.5589 54.5364 77.5589C58.0932 77.5589 61.0175 74.5801 61.0175 70.3887Z" fill="white"/>
</g>
<mask id="mask10_5_530" style="mask-type:luminance" maskUnits="userSpaceOnUse" x="-41" y="-51" width="159" height="199">
<path d="M-41 -50.875H118V147.875H-41V-50.875Z" fill="white"/>
</mask>
<g mask="url(#mask10_5_530)">
<path d="M73.3461 63.4942V71.4912C73.3461 74.25 71.691 75.8772 69.3193 75.8772C67.0852 75.8772 65.4579 74.25 65.4579 71.4912V63.4942H63.665V71.4912C63.665 75.1869 66.0369 77.5588 69.1536 77.5588C71.1943 77.5588 72.6014 76.3451 73.2083 75.4082H73.3461L73.814 77.2832H75.1378V63.4942H73.3461Z" fill="white"/>
</g>
<mask id="mask11_5_530" style="mask-type:luminance" maskUnits="userSpaceOnUse" x="-41" y="-51" width="159" height="199">
<path d="M-41 -50.875H118V147.875H-41V-50.875Z" fill="white"/>
</mask>
<g mask="url(#mask11_5_530)">
<path d="M40.9154 89.4113C40.9154 88.7628 41.4401 88.2519 42.392 88.2519C43.3035 88.2519 43.856 88.7488 43.9531 89.5631H44.6435C44.574 88.472 43.6904 87.5884 42.392 87.5884C41.0532 87.5884 40.225 88.4176 40.225 89.4391C40.225 91.7727 44.0493 90.9574 44.0493 92.7665C44.0493 93.4567 43.5107 93.9952 42.4893 93.9952C41.4122 93.9952 40.8181 93.3884 40.7219 92.6147H40.0317C40.1139 93.6501 41.0393 94.6577 42.4893 94.6577C43.9115 94.6577 44.7396 93.8158 44.7396 92.7665C44.7396 90.3784 40.9154 91.1509 40.9154 89.4113Z" fill="white"/>
</g>
<mask id="mask12_5_530" style="mask-type:luminance" maskUnits="userSpaceOnUse" x="-41" y="-51" width="159" height="199">
<path d="M-41 -50.875H118V147.875H-41V-50.875Z" fill="white"/>
</mask>
<g mask="url(#mask12_5_530)">
<path d="M47.4485 85.835H46.8405V86.9259C46.8405 87.4367 46.5787 87.6995 46.0668 87.6995H45.46V88.362H46.7582V92.6287C46.7582 93.8992 47.5168 94.6577 48.5384 94.6577C48.7873 94.6577 48.939 94.6172 49.0908 94.5615V93.927C48.939 93.9675 48.8012 93.9953 48.6355 93.9953C47.9314 93.9953 47.4485 93.5401 47.4485 92.6425V88.362H49.0908V87.6995H47.4485V85.835Z" fill="white"/>
</g>
<mask id="mask13_5_530" style="mask-type:luminance" maskUnits="userSpaceOnUse" x="-41" y="-51" width="159" height="199">
<path d="M-41 -50.875H118V147.875H-41V-50.875Z" fill="white"/>
</mask>
<g mask="url(#mask13_5_530)">
<path d="M55.3761 91.7033C55.3761 93.1116 54.4508 93.9953 53.2081 93.9953C52.0071 93.9953 51.1234 93.1116 51.1234 91.7033V87.6996H50.4331V91.7033C50.4331 93.4846 51.6063 94.6578 53.1524 94.6578C54.409 94.6578 55.0853 93.8158 55.3066 93.4289H55.3761L55.5417 94.5478H56.0664V87.6996H55.3761V91.7033Z" fill="white"/>
</g>
<mask id="mask14_5_530" style="mask-type:luminance" maskUnits="userSpaceOnUse" x="-41" y="-51" width="159" height="199">
<path d="M-41 -50.875H118V147.875H-41V-50.875Z" fill="white"/>
</mask>
<g mask="url(#mask14_5_530)">
<path d="M60.8877 93.9953C59.5755 93.9953 58.4301 92.8221 58.4301 91.1231C58.4301 89.4252 59.5755 88.252 60.8877 88.252C62.2127 88.252 63.3452 89.4252 63.3452 91.1231C63.3452 92.8221 62.2127 93.9953 60.8877 93.9953ZM63.3452 88.97H63.2757C62.9445 88.362 62.0609 87.5883 60.8877 87.5883C59.1887 87.5883 57.7397 89.0523 57.7397 91.1231C57.7397 93.195 59.1887 94.6578 60.8877 94.6578C62.0609 94.6578 62.9445 93.8713 63.2757 93.2773H63.3452L63.5247 94.5477H64.0356V84.883H63.3452V88.97Z" fill="white"/>
</g>
<mask id="mask15_5_530" style="mask-type:luminance" maskUnits="userSpaceOnUse" x="-41" y="-51" width="159" height="199">
<path d="M-41 -50.875H118V147.875H-41V-50.875Z" fill="white"/>
</mask>
<g mask="url(#mask15_5_530)">
<path d="M66.5649 85.5037C66.2893 85.5037 66.0542 85.725 66.0542 86.0284C66.0542 86.319 66.2893 86.5391 66.5649 86.5391C66.8557 86.5391 67.0896 86.319 67.0896 86.0284C67.0896 85.725 66.8557 85.5037 66.5649 85.5037Z" fill="white"/>
</g>
<mask id="mask16_5_530" style="mask-type:luminance" maskUnits="userSpaceOnUse" x="-41" y="-51" width="159" height="199">
<path d="M-41 -50.875H118V147.875H-41V-50.875Z" fill="white"/>
</mask>
<g mask="url(#mask16_5_530)">
<path d="M66.2197 94.5477H66.91V87.6995H66.2197V94.5477Z" fill="white"/>
</g>
</g>
<mask id="mask17_5_530" style="mask-type:luminance" maskUnits="userSpaceOnUse" x="-41" y="-51" width="159" height="199">
<path d="M-41 -50.875H118V147.875H-41V-50.875Z" fill="white"/>
</mask>
<g mask="url(#mask17_5_530)">
<path d="M71.786 93.9953C70.446 93.9953 69.2868 92.8221 69.2868 91.1231C69.2868 89.4252 70.446 88.252 71.786 88.252C73.1248 88.252 74.2841 89.4252 74.2841 91.1231C74.2841 92.8221 73.1248 93.9953 71.786 93.9953ZM71.786 87.5883C70.0326 87.5883 68.5964 89.0662 68.5964 91.1231C68.5964 93.1812 70.0326 94.6578 71.786 94.6578C73.5394 94.6578 74.9756 93.1812 74.9756 91.1231C74.9756 89.0662 73.5394 87.5883 71.786 87.5883Z" fill="white"/>
<path d="M60.3127 41.8332H40.9518V21.8862C40.9518 21.5104 39.6109 21.7524 39.6109 22.2456V41.8332H34.6002C33.9287 41.8332 32.2738 42.851 33.7125 42.851H59.425C60.0965 42.851 61.7512 41.8332 60.3127 41.8332Z" fill="white"/>
</g>
</svg>
