<svg version="1.1" xmlns="http://www.w3.org/2000/svg" xmlns:xlink="http://www.w3.org/1999/xlink">
    <symbol id="icon-arrow" viewBox="0 0 40 32">
        <path d="M0 14.324h36.571v2.286h-36.571v-2.286z"></path>
        <path d="M37.79 16.457c-7.771-2.133-13.714-8.229-15.848-15.848l2.133-0.61c1.829 6.857 7.314 12.343 14.324 14.324l-0.61 2.133z"></path>
        <path d="M24.076 30.781l-2.133-0.61c2.133-7.771 8.229-13.714 15.848-15.848l0.61 2.133c-6.857 1.981-12.343 7.467-14.324 14.324z"></path>
    </symbol>
    <symbol id="icon-logo" viewBox="0 0 25 32">
        <path d="M16.874 16.562h-5.491c-0.145 0-0.39 0.055-0.478 0.182-0.093 0.133 0.081 0.157 0.18 0.157h8.297c0.145 0 0.39-0.055 0.478-0.182 0.093-0.133-0.081-0.157-0.18-0.157h-2.806z"></path>
        <path d="M7.714 16.41c0.596 0.262 1.228 0.41 1.874 0.482 0.198 0.022 0.504-0.256 0.181-0.292-1.572-0.173-3.101-0.978-3.878-2.397-0.012-0.022-0.021-0.045-0.032-0.067h3.735c0.1 0 0.267-0.031 0.315-0.135 0.045-0.098-0.039-0.157-0.134-0.157h-4.165c-0.083 0-0.386 0.063-0.33 0.21 0.399 1.063 1.428 1.913 2.435 2.357z"></path>
        <path d="M6.264 13.154h5.296c0.168 0 0.368-0.039 0.508-0.136 0.103-0.071 0.108-0.154-0.041-0.154h-5.17c-0.015-0.391 0.056-0.795 0.145-1.171 0.242-1.029 0.732-1.991 1.378-2.825 0.53-0.684 1.172-1.274 1.867-1.787 0.135-0.1-0.119-0.118-0.169-0.114-0.169 0.012-0.345 0.070-0.481 0.171-1.779 1.316-3.238 3.264-3.442 5.525-0.013 0.146-0.024 0.296-0.016 0.442 0.002 0.042 0.108 0.049 0.126 0.049z"></path>
        <path d="M13.51 6.295v-0.561c0-0.096-0.442-0.025-0.442 0.119v0.561c0 0.096 0.442 0.025 0.442-0.119z"></path>
        <path d="M11.5 6.227c1.298-0.665 2.613-1.231 3.749-2.144 1.621-1.303 3.242-2.606 4.863-3.909 0.181-0.145-0.571-0.072-0.723 0.051-1.505 1.21-3.010 2.42-4.516 3.63-1.201 0.966-2.288 1.459-3.837 2.252-0.471 0.241 0.268 0.221 0.463 0.121z"></path>
        <path d="M4.599 19.127h-4.567v0.591h1.965v5.777h0.637v-5.777h1.965v-0.591z"></path>
        <path d="M4.89 22.975c0.1-0.937 0.773-1.565 1.537-1.565 0.792 0 1.383 0.655 1.438 1.565h-2.975zM6.428 20.856c-1.174 0-2.138 0.982-2.138 2.365 0 1.41 0.937 2.365 2.138 2.365 0.883 0 1.601-0.555 1.874-1.274h-0.591c-0.282 0.473-0.691 0.719-1.265 0.719-0.837 0-1.447-0.582-1.547-1.52h3.53c0.027-0.109 0.036-0.255 0.036-0.428 0-1.256-0.864-2.229-2.038-2.229z"></path>
        <path d="M11.359 20.856c-0.673 0-1.137 0.4-1.337 0.709h-0.046l-0.155-0.619h-0.437v4.549h0.591v-2.639c0-0.91 0.546-1.447 1.328-1.447 0.737 0 1.274 0.537 1.274 1.447v2.639h0.591v-2.639c0-1.219-0.782-2.001-1.81-2.001z"></path>
        <path d="M14.643 19.4c-0.227 0-0.409 0.164-0.409 0.409 0 0.237 0.182 0.41 0.409 0.41 0.236 0 0.41-0.173 0.41-0.41 0-0.246-0.173-0.409-0.41-0.409z"></path>
        <path d="M14.343 25.732c0 0.61-0.291 0.892-0.755 0.892-0.118 0-0.209-0.018-0.309-0.055v0.537c0.1 0.036 0.209 0.073 0.4 0.073 0.719 0 1.255-0.528 1.255-1.447v-4.785h-0.591v4.785z"></path>
        <path d="M16.444 23.221c0-1.083 0.719-1.811 1.547-1.811s1.547 0.728 1.547 1.811c0 1.083-0.719 1.811-1.547 1.811s-1.547-0.728-1.547-1.811zM20.13 23.221c0-1.383-0.965-2.365-2.138-2.365s-2.138 0.982-2.138 2.365c0 1.383 0.964 2.365 2.138 2.365s2.138-0.983 2.138-2.365z"></path>
        <path d="M24.197 20.947v2.638c0 0.91-0.546 1.447-1.328 1.447-0.737 0-1.274-0.537-1.274-1.447v-2.638h-0.591v2.638c0 1.219 0.782 2.002 1.811 2.002 0.673 0 1.137-0.4 1.338-0.709h0.045l0.154 0.619h0.437v-4.549h-0.591z"></path>
        <path d="M13.498 29.497c0-0.214 0.173-0.382 0.487-0.382 0.301 0 0.483 0.164 0.515 0.433h0.228c-0.023-0.36-0.314-0.651-0.743-0.651-0.442 0-0.715 0.274-0.715 0.611 0 0.77 1.262 0.501 1.262 1.098 0 0.228-0.178 0.405-0.515 0.405-0.355 0-0.551-0.2-0.583-0.455h-0.228c0.027 0.342 0.332 0.674 0.811 0.674 0.469 0 0.742-0.278 0.742-0.624 0-0.788-1.262-0.533-1.262-1.107z"></path>
        <path d="M15.653 28.317h-0.201v0.36c0 0.169-0.086 0.255-0.255 0.255h-0.2v0.219h0.428v1.408c0 0.419 0.25 0.669 0.587 0.669 0.082 0 0.132-0.013 0.182-0.032v-0.209c-0.050 0.013-0.096 0.023-0.15 0.023-0.232 0-0.392-0.15-0.392-0.446v-1.412h0.542v-0.219h-0.542v-0.615z"></path>
        <path d="M18.268 30.253c0 0.465-0.305 0.756-0.715 0.756-0.396 0-0.688-0.292-0.688-0.756v-1.321h-0.228v1.321c0 0.588 0.387 0.975 0.897 0.975 0.415 0 0.638-0.278 0.711-0.405h0.023l0.055 0.369h0.173v-2.259h-0.228v1.321z"></path>
        <path d="M20.087 31.009c-0.433 0-0.811-0.387-0.811-0.948s0.378-0.947 0.811-0.947c0.437 0 0.811 0.387 0.811 0.947s-0.374 0.948-0.811 0.948zM20.897 29.351h-0.023c-0.109-0.201-0.401-0.456-0.788-0.456-0.561 0-1.038 0.483-1.038 1.166s0.478 1.166 1.038 1.166c0.387 0 0.679-0.259 0.788-0.455h0.023l0.059 0.419h0.169v-3.188h-0.228v1.348z"></path>
        <path d="M21.96 28.207c-0.091 0-0.168 0.073-0.168 0.173 0 0.096 0.078 0.168 0.168 0.168 0.096 0 0.173-0.073 0.173-0.168 0-0.1-0.077-0.173-0.173-0.173z"></path>
        <path d="M21.846 31.191h0.228v-2.259h-0.228v2.259z"></path>
        <path d="M23.682 31.009c-0.442 0-0.824-0.387-0.824-0.948s0.382-0.947 0.824-0.947c0.442 0 0.824 0.387 0.824 0.947s-0.382 0.948-0.824 0.948zM23.682 28.895c-0.578 0-1.052 0.488-1.052 1.166s0.474 1.166 1.052 1.166 1.052-0.487 1.052-1.166c0-0.679-0.474-1.166-1.052-1.166z"></path>
        <path d="M19.897 13.801h-6.387v-6.58c0-0.124-0.442-0.044-0.442 0.119v6.462h-1.653c-0.222 0-0.767 0.336-0.293 0.336h8.482c0.222 0 0.767-0.336 0.293-0.336z"></path>
    </symbol>
    <symbol id="icon-up" viewBox="0 0 32 32">
        <path fill="none" stroke-linejoin="miter" stroke-linecap="butt" stroke-miterlimit="4" stroke-width="1" d="M0.5 0.5h31v31h-31v-31z"></path>
        <path fill="none" stroke-linejoin="miter" stroke-linecap="butt" stroke-miterlimit="4" stroke-width="1" d="M16.034 8.323v16.014"></path>
        <path fill="none" stroke-linejoin="miter" stroke-linecap="butt" stroke-miterlimit="4" stroke-width="1" d="M16 7.663c-0.876 3.213-3.386 5.723-6.6 6.6"></path>
        <path fill="none" stroke-linejoin="miter" stroke-linecap="butt" stroke-miterlimit="4" stroke-width="1" d="M22.6 14.263c-3.213-0.876-5.723-3.387-6.6-6.6"></path>
    </symbol>
    <symbol id="icon-email" viewBox="0 0 40 32">
        <path d="M35.2 32h-30.72c-2.432 0-4.48-2.048-4.48-4.48v-23.040c0-2.432 2.048-4.48 4.48-4.48h30.72c2.432 0 4.48 2.048 4.48 4.48v23.040c0 2.432-2.048 4.48-4.48 4.48zM4.48 1.28c-1.792 0-3.2 1.408-3.2 3.2v23.040c0 1.792 1.408 3.2 3.2 3.2h30.72c1.792 0 3.2-1.408 3.2-3.2v-23.040c0-1.792-1.408-3.2-3.2-3.2h-30.72z"></path>
        <path d="M19.84 18.56c-0.768 0-1.536-0.256-2.304-0.64l-17.28-11.008c-0.256-0.128-0.384-0.512-0.128-0.896 0.128-0.256 0.64-0.384 0.896-0.256l17.28 11.008c0.896 0.512 2.176 0.512 3.2 0l17.28-11.008c0.256-0.128 0.64-0.128 0.896 0.256 0.128 0.384 0 0.768-0.256 0.896l-17.28 11.008c-0.768 0.384-1.536 0.64-2.304 0.64z"></path>
    </symbol>
    <symbol id="icon-instagram" viewBox="0 0 32 32">
        <path d="M23.68 32h-15.36c-4.608 0-8.32-3.712-8.32-8.32v-15.36c0-4.608 3.712-8.32 8.32-8.32h15.36c4.608 0 8.32 3.712 8.32 8.32v15.36c0 4.608-3.712 8.32-8.32 8.32zM8.32 1.28c-3.84 0-7.040 3.2-7.040 7.040v15.36c0 3.84 3.2 7.040 7.040 7.040h15.36c3.84 0 7.040-3.2 7.040-7.040v-15.36c0-3.84-3.2-7.040-7.040-7.040h-15.36z"></path>
        <path d="M16.128 22.656c-0.384 0-0.768 0-1.024-0.128-1.408-0.256-2.688-0.896-3.712-1.92s-1.664-2.304-1.92-3.712c-0.256-1.408 0-2.816 0.64-4.096s1.664-2.304 2.944-2.944c1.28-0.64 2.688-0.896 4.096-0.64s2.816 0.896 3.84 1.92c1.024 1.024 1.664 2.432 1.92 3.84v0c0.256 1.408 0 2.816-0.64 4.096s-1.664 2.304-2.944 2.944c-1.152 0.512-2.176 0.64-3.2 0.64zM16 10.368c-0.896 0-1.792 0.256-2.56 0.64-1.024 0.512-1.92 1.408-2.432 2.432s-0.64 2.176-0.512 3.328c0.128 1.152 0.768 2.176 1.536 3.072s1.92 1.408 3.072 1.536c1.152 0.128 2.304 0 3.328-0.512s1.92-1.408 2.432-2.432c0.512-1.024 0.768-2.176 0.512-3.328 0 0 0 0 0 0-0.128-1.152-0.768-2.304-1.536-3.072s-1.92-1.408-3.072-1.536c-0.128 0-0.384-0.128-0.768-0.128z"></path>
    </symbol>
</svg>
